<?xml version="1.0" encoding="utf-8"?>
<!-- Generator: Adobe Illustrator 24.0.3, SVG Export Plug-In . SVG Version: 6.00 Build 0)  -->
<svg version="1.1" xmlns="http://www.w3.org/2000/svg" xmlns:xlink="http://www.w3.org/1999/xlink" x="0px" y="0px"
	 viewBox="0 0 1079.76 841.89" style="enable-background:new 0 0 1079.76 841.89;" xml:space="preserve">
<style type="text/css">
	.st0{stroke:#6BC6DC;stroke-width:20;stroke-miterlimit:10;}
	.st1{fill:none;stroke:#6BC6DC;stroke-width:20;stroke-miterlimit:10;}
</style>
<g id="rodes">
</g>
<g id="carro">
	<line class="st0" x1="377.22" y1="528.16" x2="377.22" y2="724.37"/>
	<line class="st0" x1="314.16" y1="551.12" x2="440.27" y2="701.42"/>
	<line class="st0" x1="280.6" y1="609.23" x2="473.83" y2="643.3"/>
	<line class="st0" x1="292.26" y1="675.32" x2="462.17" y2="577.22"/>
	<line class="st0" x1="343.66" y1="718.45" x2="410.77" y2="534.08"/>
	<line class="st0" x1="410.77" y1="718.45" x2="343.66" y2="534.08"/>
	<line class="st0" x1="462.17" y1="675.32" x2="292.26" y2="577.22"/>
	<line class="st0" x1="473.83" y1="609.23" x2="280.6" y2="643.3"/>
	<line class="st0" x1="440.27" y1="551.12" x2="314.16" y2="701.42"/>
	<line class="st0" x1="692.41" y1="528.16" x2="692.41" y2="724.37"/>
	<line class="st0" x1="629.35" y1="551.12" x2="755.46" y2="701.42"/>
	<line class="st0" x1="595.79" y1="609.23" x2="789.02" y2="643.3"/>
	<line class="st0" x1="607.45" y1="675.32" x2="777.36" y2="577.22"/>
	<line class="st0" x1="658.85" y1="718.45" x2="725.96" y2="534.08"/>
	<line class="st0" x1="725.96" y1="718.45" x2="658.85" y2="534.08"/>
	<line class="st0" x1="777.36" y1="675.32" x2="607.45" y2="577.22"/>
	<line class="st0" x1="789.02" y1="609.23" x2="595.79" y2="643.3"/>
	<line class="st0" x1="755.46" y1="551.12" x2="629.35" y2="701.42"/>
	<line class="st1" x1="295.4" y1="386.45" x2="754.89" y2="386.45"/>
	<line class="st1" x1="261.66" y1="264.13" x2="799.97" y2="264.13"/>
	<polygon class="st1" points="236.92,174.44 320.7,478.2 723.61,478.2 827.17,174.44 	"/>
	<line class="st1" x1="522.16" y1="478.2" x2="522.16" y2="174.44"/>
	<line class="st1" x1="429.36" y1="478.2" x2="371.37" y2="174.44"/>
	<line class="st1" x1="617.29" y1="478.2" x2="684.95" y2="174.44"/>
	<line class="st1" x1="827.17" y1="174.44" x2="875.48" y2="96.52"/>
</g>
</svg>
